<?xml version="1.0" encoding="UTF-8" standalone="no"?>
<!-- Created with Inkscape (http://www.inkscape.org/) -->

<svg
   width="512"
   height="512"
   viewBox="0 0 512 512"
   version="1.1"
   id="svg1"
   xmlns="http://www.w3.org/2000/svg"
   xmlns:svg="http://www.w3.org/2000/svg">
  <defs
     id="defs1" />
  <g
     id="layer1">
    <path
       id="path97"
       style="fill:#f57f17;fill-opacity:1;stroke-width:0;stroke-linecap:square"
       d="m 299.16016,237.00391 c -4.13831,4.38333 -8.45863,8.35429 -13.01172,11.59961 -4.14125,-2.60598 -8.40807,-4.73808 -12.7793,-6.31641 -5.62861,-2.03237 -11.42214,-3.18555 -17.35156,-3.18555 -5.75495,0 -11.38056,1.09239 -16.85352,3.01172 -4.54198,1.59286 -8.96999,3.79441 -13.26562,6.4961 -4.481,-3.1927 -8.73849,-7.08561 -12.81836,-11.38282 a 95,95 0 0 1 1.9082,18.01172 95,95 0 0 1 0.0293,0.77539 95,95 0 0 1 -0.0937,0.83008 95,95 0 0 1 -2.04102,18.14063 c -0.008,0.009 -0.0171,0.0166 -0.0254,0.0254 a 95,95 0 0 1 -31.84375,53.48242 c -4.40436,11.93557 -7.39114,23.92442 -8.78906,35.0039 a 120,120 0 0 0 66.83203,-93.625 c -4.4821,-1.58855 -8.86105,-3.73673 -13.10156,-6.41601 4.32895,-3.10116 8.82735,-5.62546 13.47265,-7.42578 -0.006,-0.002 -0.0118,-0.004 -0.0176,-0.006 0.20003,-0.0776 0.39903,-0.16143 0.59961,-0.23633 5.18589,-1.93666 10.53282,-3.02734 16.00781,-3.02734 5.47989,0 10.83125,1.09322 16.02148,3.0332 0.19546,0.073 0.38904,0.15485 0.58399,0.23047 -0.006,0.002 -0.0118,0.004 -0.0176,0.006 4.63993,1.798 9.13263,4.31816 13.45703,7.41406 -4.24657,2.68499 -8.63051,4.83673 -13.11914,6.42773 a 120,120 0 0 0 66.83203,93.625 c -1.39792,-11.07948 -4.3847,-23.06833 -8.78906,-35.0039 a 95,95 0 0 1 -31.84375,-53.48242 c -2.20621,-2.33685 -4.47814,-4.52607 -6.80274,-6.56641 -0.98554,-0.86484 -1.98143,-1.6999 -2.98632,-2.50781 3.38541,2.70532 6.65926,5.75415 9.80664,9.08789 a 95,95 0 0 1 -2.04883,-18.17969 95,95 0 0 1 -0.0937,-0.83008 95,95 0 0 1 0.0937,-0.83008 95,95 0 0 1 2.04883,-18.17968 z m -12.77735,26.66406 c 0.89589,0.64854 1.78311,1.32829 2.66407,2.02539 -0.88,-0.70061 -1.76861,-1.37516 -2.66407,-2.02539 z" />
    <path
       id="path75"
       style="fill:#00878f;stroke-width:0;stroke-linecap:square"
       d="m 392,136 a 120,120 0 0 0 -41.46094,7.70312 c -0.39714,4.54562 -1.09652,9.27711 -2.02539,14.11133 a 108.90135,107.49609 0 0 1 44.74024,-9.53125 108.90135,107.49609 0 0 1 108.90039,107.4961 108.90135,107.49609 0 0 1 -108.90039,107.49609 108.90135,107.49609 0 0 1 -44.82032,-9.56055 c 0.97146,4.97177 1.69047,9.83242 2.10157,14.50196 A 120,120 0 0 0 392,376 120,120 0 0 0 512,256 120,120 0 0 0 392,136 Z" />
    <path
       d="m 272.02148,255.7793 c 0.19037,0.0711 0.37653,0.16275 0.56641,0.23632 0.006,-0.002 0.0118,-0.004 0.0176,-0.006 -0.19495,-0.0756 -0.38853,-0.15747 -0.58399,-0.23047 z"
       style="fill:#00878f;stroke-width:0;stroke-linecap:square"
       id="path103" />
    <path
       d="m 272.01172,256.22656 c 0.19184,-0.072 0.38479,-0.13657 0.57617,-0.21094 -0.18988,-0.0736 -0.37604,-0.16517 -0.56641,-0.23632 A 120,120 0 0 0 272,256 a 120,120 0 0 0 0.0117,0.22656 z"
       style="fill:#00878f;stroke-width:0;stroke-linecap:square"
       id="path102" />
    <path
       d="m 239.41016,256.01562 c 0.19196,0.0746 0.3857,0.13874 0.57812,0.21094 A 120,120 0 0 0 240,256 a 120,120 0 0 0 -0.008,-0.22656 c -0.19556,0.073 -0.387,0.1666 -0.58203,0.24218 z"
       style="fill:#00878f;stroke-width:0;stroke-linecap:square"
       id="path95" />
    <path
       d="m 239.41016,256.01562 c 0.19503,-0.0756 0.38647,-0.16915 0.58203,-0.24218 -0.20058,0.0749 -0.39958,0.15873 -0.59961,0.23633 0.006,0.002 0.0118,0.004 0.0176,0.006 z"
       style="fill:#00878f;stroke-width:0;stroke-linecap:square"
       id="path93" />
    <g
       id="g2"
       style="fill:#ffa726">
      <path
         d="m 339.73633,148.80273 a 120,120 0 0 0 -66.38477,93.47071 c 4.36663,1.57667 8.62261,3.72779 12.75977,6.33008 4.56029,-3.24793 8.88707,-7.22373 13.03125,-11.61329 a 95,95 0 0 1 31.84375,-53.48242 c 4.36494,-11.8287 7.33534,-23.70769 8.75,-34.70508 z"
         style="fill:#ffa726;fill-opacity:1;stroke-width:0;stroke-linecap:square"
         id="path89" />
      <path
         id="path99"
         style="fill:#ffa726;fill-opacity:1;stroke-width:0;stroke-linecap:square"
         d="m 239.41016,256.01562 c -4.64943,1.80192 -9.15481,4.3103 -13.48633,7.41993 4.25029,2.68852 8.63965,4.84307 13.13281,6.43554 5.499,1.94897 11.15617,3.04102 16.94336,3.04102 5.78701,0 11.44493,-1.09209 16.94336,-3.04102 4.49285,-1.59249 8.88055,-3.74703 13.13086,-6.43554 -4.33162,-3.10933 -8.83686,-5.61822 -13.48633,-7.41993 -0.19138,0.0744 -0.38433,0.13896 -0.57617,0.21094 -5.18529,1.94559 -10.53515,3.02735 -16.01172,3.02735 -5.47647,0 -10.82667,-1.0817 -16.01172,-3.02735 -0.19242,-0.0722 -0.38616,-0.13633 -0.57812,-0.21094 z m 0.45703,4.24805 a 120,120 0 0 1 -0.0723,1.34961 120,120 0 0 0 0.0723,-1.34961 z m 32.26562,0 a 120,120 0 0 0 0.0723,1.34961 120,120 0 0 1 -0.0723,-1.34961 z m -32.54492,4.35938 a 120,120 0 0 1 -0.0937,1.12695 120,120 0 0 0 0.0937,-1.12695 z m 32.82422,0 a 120,120 0 0 0 0.0937,1.12695 120,120 0 0 1 -0.0937,-1.12695 z" />
      <path
         d="m 172.22852,148.53516 c 1.38585,10.96145 4.33191,22.81056 8.6621,34.61914 a 95,95 0 0 1 32.17188,54.05859 c 4.08538,4.303 8.3483,8.20133 12.83594,11.39648 4.29193,-2.69829 8.71017,-4.91836 13.24804,-6.50976 a 120,120 0 0 0 -66.91796,-93.56445 z"
         style="fill:#ffa726;fill-opacity:1;stroke-width:0;stroke-linecap:square"
         id="path87" />
    </g>
    <path
       id="path84"
       style="fill:#00878f;stroke-width:0;stroke-linecap:square"
       d="M 120,136 A 120,120 0 0 0 0,256 a 120,120 0 0 0 120,120 120,120 0 0 0 41.46484,-7.7832 c 0.3977,-4.51736 1.09637,-9.21914 2.01954,-14.02149 A 108.90135,107.49609 0 0 1 119.36914,363.49609 108.90135,107.49609 0 0 1 10.46875,256 108.90135,107.49609 0 0 1 119.36914,148.50391 108.90135,107.49609 0 0 1 163.47266,157.75 c -0.93549,-4.87762 -1.62616,-9.64733 -2.01954,-14.23047 A 120,120 0 0 0 120,136 Z" />
    <path
       id="path106"
       style="opacity:1;fill:#00878f;fill-opacity:1;stroke-width:0;stroke-linecap:square"
       d="m 256.04297,38.910156 c -46.37797,0 -84.97226,33.241588 -93.31055,77.193364 h 10.76367 c 8.67835,-37.582143 42.32779,-65.609379 82.54688,-65.609379 39.1596,-10e-6 72.08057,26.574573 81.79883,62.664059 l -8.8711,1.29102 17.00782,21.55078 10.16015,-25.50586 -7.75586,1.12891 C 338.35169,69.913952 300.83017,38.910156 256.04297,38.910156 Z" />
    <path
       id="path107"
       style="opacity:1;fill:#00878f;fill-opacity:1;stroke-width:0;stroke-linecap:square"
       d="m 256.04297,38.910156 c -46.37797,0 -84.97226,33.241588 -93.31055,77.193364 h 10.76367 c 8.67835,-37.582143 42.32779,-65.609379 82.54688,-65.609379 39.1596,-10e-6 72.08057,26.574573 81.79883,62.664059 l -8.8711,1.29102 17.00782,21.55078 10.16015,-25.50586 -7.75586,1.12891 C 338.35169,69.913952 300.83017,38.910156 256.04297,38.910156 Z" />
    <path
       id="path107-2"
       style="fill:#00878f;fill-opacity:1;stroke-width:0;stroke-linecap:square"
       d="m 259.39258,479.08146 c 46.37797,0 84.97226,-33.24158 93.31054,-77.19336 h -10.76367 c -8.67835,37.58214 -42.32778,65.60938 -82.54687,65.60938 -39.15961,1e-5 -72.08057,-26.57457 -81.79883,-62.66406 l 8.8711,-1.29102 -17.00783,-21.55078 -10.16015,25.50586 7.75587,-1.12891 c 10.03111,41.7091 47.55263,72.71289 92.33984,72.71289 z" />
  </g>
  <g
     id="layer2">
    <path
       id="path105"
       style="fill:#00878f;fill-opacity:1;stroke:none;stroke-width:0;stroke-linecap:square"
       d="m 121.7939,219.80428 a 36.195559,36.195559 0 0 0 -36.060014,34.28949 c -0.08635,0.39946 -0.135643,0.81628 -0.135643,1.24713 V 256 320.87313 c 0,2.8509 2.006496,5.14681 4.497407,5.14681 2.490894,0 4.494173,-2.29591 4.494173,-5.14681 V 279.85369 A 36.195559,36.195559 0 0 0 121.7939,292.1957 36.195559,36.195559 0 0 0 157.98959,256 36.195559,36.195559 0 0 0 121.7939,219.80428 Z m 0,9.04974 A 27.146668,27.146668 0 0 1 148.93987,256 27.146668,27.146668 0 0 1 121.7939,283.14597 27.146668,27.146668 0 0 1 94.647917,256 27.146668,27.146668 0 0 1 121.7939,228.85402 Z" />
    <path
       id="path108"
       style="fill:#00878f;fill-opacity:1;stroke:none;stroke-width:0;stroke-linecap:square"
       d="m 393.25367,219.80428 a 36.195559,36.195559 0 0 1 36.06002,34.28949 c 0.0863,0.39946 0.13564,0.81628 0.13564,1.24713 V 256 320.87313 c 0,2.8509 -2.0065,5.14681 -4.49741,5.14681 -2.49089,0 -4.49417,-2.29591 -4.49417,-5.14681 V 279.85369 A 36.195559,36.195559 0 0 1 393.25367,292.1957 36.195559,36.195559 0 0 1 357.05798,256 36.195559,36.195559 0 0 1 393.25367,219.80428 Z m 0,9.04974 A 27.146668,27.146668 0 0 0 366.1077,256 27.146668,27.146668 0 0 0 393.25367,283.14597 27.146668,27.146668 0 0 0 420.39966,256 27.146668,27.146668 0 0 0 393.25367,228.85402 Z" />
  </g>
</svg>
